<?xml version="1.0" encoding="utf-8"?>
<!-- Generator: Adobe Illustrator 25.1.0, SVG Export Plug-In . SVG Version: 6.00 Build 0)  -->
<svg version="1.1" id="Layer_1" xmlns="http://www.w3.org/2000/svg" xmlns:xlink="http://www.w3.org/1999/xlink" x="0px" y="0px"
	 viewBox="0 0 173.6 83.6" style="enable-background:new 0 0 173.6 83.6;" xml:space="preserve">
<style type="text/css">
	.st0{fill:#FF5652;}
	.st1{fill:#FFF41F;}
	.st2{fill:#9AF49A;}
	.st3{fill:#FCFAEB;}
	.st4{fill:#223BEF;}
	.st5{fill:none;stroke:#262626;stroke-width:0.25;stroke-miterlimit:10;}
</style>
<ellipse class="st0" cx="163" cy="37.7" rx="10.6" ry="13.7"/>
<ellipse class="st1" cx="132.6" cy="13.7" rx="10.6" ry="13.7"/>
<ellipse class="st2" cx="104.1" cy="23.9" rx="10.6" ry="13.7"/>
<ellipse class="st3" cx="58.3" cy="16.8" rx="10.6" ry="13.7"/>
<ellipse class="st4" cx="10.6" cy="27.4" rx="10.6" ry="13.7"/>
<path class="st5" d="M163.4,51.5c-1.6,2.7-1.7,6-1.3,9.1s1.4,6.1,1.7,9.2c0.4,4.6-0.7,9.2-1.8,13.7"/>
<path class="st5" d="M132.4,27.7c0.3,2.5,0.6,4.9,0.9,7.4c0.9,8,1.8,16.2-0.9,23.8c-1.4,3.9-3.8,7.9-2.9,12"/>
<path class="st5" d="M103.8,37.3c-2.3,2.1-2.4,5.7-1.6,8.8c0.8,3,2.3,5.9,2.5,9c0.4,5.7-3.6,10.7-7.3,15.1"/>
<path class="st5" d="M58.9,32.1c-2.9,2.7-3.7,6.9-3.4,10.9s1.7,7.6,2.6,11.5c1.6,7.1,1.7,14.4,1.1,21.7"/>
<path class="st5" d="M10.8,41.2c-1.2,1.7-1,3.9-0.4,5.9c0.6,1.9,1.6,3.8,2.1,5.8c0.7,3.2-0.2,6.4-1.3,9.5c-1.1,3-2.4,6-2.8,9.2
	c-0.3,3.2,0.7,6.8,3.3,8.6"/>
</svg>
