<?xml version="1.0" encoding="utf-8"?>
<!-- Generator: Adobe Illustrator 25.1.0, SVG Export Plug-In . SVG Version: 6.00 Build 0)  -->
<svg version="1.1" id="Layer_1" xmlns="http://www.w3.org/2000/svg" xmlns:xlink="http://www.w3.org/1999/xlink" x="0px" y="0px"
	 viewBox="0 0 11.1 19" style="enable-background:new 0 0 11.1 19;" xml:space="preserve">
<style type="text/css">
	.st0{fill:#223BEF;}
</style>
<g>
	<path class="st0" d="M5.1,17.1c-2.6-0.2-4.8-1.8-5.1-4.4l3-0.6c0.3,1.1,1,1.8,2.1,2v-3.2l-0.6-0.2C1.4,9.6,0.8,7.6,0.8,6.2
		c0-2.4,1.8-4,4.3-4.2V0h1.5v1.9c1.9,0.2,3.4,1.3,4.2,3.2L8,6.4C7.6,5.5,7.1,5.1,6.6,4.9v3l0.6,0.2c3.1,1.1,3.9,3.1,3.9,4.4
		c0,2.8-2.2,4.2-4.5,4.5v2H5.1V17.1z M5.1,7.5V4.9C4.5,5.1,4,5.4,4,6.1C4,6.4,4.1,7,5.1,7.5z M6.5,11.3V14c0.7-0.2,1.2-0.6,1.2-1.2
		C7.7,12.3,7.5,11.8,6.5,11.3z"/>
</g>
</svg>
