<?xml version="1.0" encoding="utf-8"?>
<!-- Generator: Adobe Illustrator 25.1.0, SVG Export Plug-In . SVG Version: 6.00 Build 0)  -->
<svg version="1.1" id="Layer_1" xmlns="http://www.w3.org/2000/svg" xmlns:xlink="http://www.w3.org/1999/xlink" x="0px" y="0px"
	 viewBox="0 0 32.7 20.5" style="enable-background:new 0 0 32.7 20.5;" xml:space="preserve">
<style type="text/css">
	.st0{fill:#FF5652;}
</style>
<g>
	<g>
		<path class="st0" d="M25.8,12.7c0.5,2.1,1.3,3.9,3.3,3.9c0.7,0,1.5-0.3,2-0.9l1.6,3.1c-1.3,1-2.4,1.7-4.5,1.7
			c-4.8,0-6.3-5.4-6.5-7.5H19v7.2h-4.4V0h9C27.8,0,30,3.1,30,6.6C30.1,9.5,28.5,11.8,25.8,12.7z M23.1,9.4c1.6,0,2.5-1.2,2.5-2.8
			c0-1.7-1-2.9-2.5-2.9h-4v5.7H23.1z"/>
	</g>
	<polyline class="st0" points="12.3,0 0,0 6.9,9.9 0,20.2 12.3,20.2 12.3,0 	"/>
</g>
</svg>
