<?xml version="1.0" encoding="utf-8"?>
<!-- Generator: Adobe Illustrator 25.1.0, SVG Export Plug-In . SVG Version: 6.00 Build 0)  -->
<svg version="1.1" id="Layer_1" xmlns="http://www.w3.org/2000/svg" xmlns:xlink="http://www.w3.org/1999/xlink" x="0px" y="0px"
	 viewBox="0 0 108.6 21.6" style="enable-background:new 0 0 108.6 21.6;" xml:space="preserve">
<style type="text/css">
	.st0{fill:#FF5652;}
</style>
<g>
	<g>
		<path class="st0" d="M25.8,13.7c0.5,2.1,1.3,3.9,3.3,3.9c0.7,0,1.5-0.3,2-0.9l1.6,3.1c-1.3,1-2.4,1.7-4.5,1.7
			c-4.8,0-6.3-5.4-6.5-7.5h-2.7v7.2h-4.4V1h9c4.2,0,6.4,3.1,6.4,6.6C30.1,10.5,28.5,12.8,25.8,13.7z M23.1,10.4
			c1.6,0,2.5-1.2,2.5-2.8c0-1.7-1-2.9-2.5-2.9h-4v5.7H23.1z"/>
		<path class="st0" d="M36,0c1.5,0,2.7,1,2.7,2.5c0,1.4-1.2,2.4-2.7,2.4c-1.6,0-2.7-1-2.7-2.4C33.3,1,34.5,0,36,0z M33.9,21.2V6.4
			h4.3v14.8H33.9z"/>
		<path class="st0" d="M49.9,21.5c-2.2,0-3.6-1-4.6-2.5v2.2H41V0.3h4.3v8.1C46.3,7,48,6.1,50,6.1c4.6,0,7.1,3.5,7.1,7.6
			C57.1,18,54.4,21.5,49.9,21.5z M49.1,9.6c-2.3,0-4,1.7-4,4.4c0,2.7,1.8,4,3.9,4c2.4,0,3.8-1.9,3.8-4.3
			C52.8,11.5,51.5,9.6,49.1,9.6z"/>
		<path class="st0" d="M68,21.6c-2.2,0-3.6-1-4.6-2.5v2.2H59V0.4h4.3v8.1c1-1.4,2.7-2.3,4.7-2.3c4.6,0,7.1,3.5,7.1,7.6
			C75.2,18.1,72.5,21.6,68,21.6z M67.2,9.6c-2.3,0-4,1.7-4,4.4c0,2.7,1.8,4,3.9,4c2.4,0,3.8-1.9,3.8-4.3
			C70.9,11.5,69.6,9.6,67.2,9.6z"/>
		<path class="st0" d="M84.4,6.1c4.3,0,8.1,3.1,8.1,7.7c0,4.6-3.8,7.7-8.1,7.7c-4.3,0-8.1-3.1-8.1-7.7C76.3,9.2,80.1,6.1,84.4,6.1z
			 M84.4,17.9c2.1,0,4-1.7,4-4c0-2.3-1.8-4-4-4c-2.1,0-4,1.7-4,4C80.5,16.2,82.3,17.9,84.4,17.9z"/>
		<path class="st0" d="M94.4,6.5h4.3v2c1.2-1.7,2.8-2.3,4.6-2.3c4.2,0,5.3,3.3,5.3,7.1v8.1h-4.3v-8c0-2-0.8-3.6-2.7-3.6
			s-2.8,1.6-2.8,3.6v7.9h-4.3V6.5z"/>
	</g>
	<polyline class="st0" points="12.3,1 0,1 6.9,10.9 0,21.2 12.3,21.2 12.3,1 	"/>
</g>
</svg>
